<svg id="Capa_1" enable-background="new 0 0 512 512" height="512" viewBox="0 0 512 512" width="512" xmlns="http://www.w3.org/2000/svg"><g><circle cx="136" cy="376" fill="#704c55" r="75"/><circle cx="376" cy="376" fill="#5b362a" r="75"/><path d="m256 211h-135v165c0 74.559 60.441 136 135 136s135-61.441 135-136v-165z" fill="#ffd396"/><path d="m391 376v-165h-135v301c74.559 0 135-61.441 135-136z" fill="#ffb64c"/><path d="m256 246.991-52.368 42.568 40.649 50.815c2.856 3.56 7.163 5.625 11.719 5.625s8.862-2.065 11.719-5.625l40.649-50.815z" fill="#fabe2c"/><path d="m308.368 289.56-52.368-42.569v99.009c4.556 0 8.862-2.065 11.719-5.625z" fill="#ff9100"/><path d="m436 0c-40.928 0-77.549 23.848-94.658 60.483-3.501-.322-6.929-.483-10.342-.483h-75-75c-3.413 0-6.841.161-10.342.483-17.109-36.635-53.73-60.483-94.658-60.483-8.291 0-15 6.709-15 15v166c0 66.167 53.833 120 120 120 27.598 0 53.745-9.316 75-26.484 21.255 17.168 47.402 26.484 75 26.484 66.167 0 120-53.833 120-120v-166c0-8.291-6.709-15-15-15z" fill="#e68a44"/><path d="m451 181v-166c0-8.291-6.709-15-15-15-40.928 0-77.549 23.848-94.658 60.483-3.501-.322-6.929-.483-10.342-.483h-75v214.516c21.255 17.168 47.402 26.484 75 26.484 66.167 0 120-53.833 120-120z" fill="#bc5f19"/><path d="m166 241c-33.091 0-60-26.909-60-60s26.909-60 60-60 60 26.909 60 60-26.909 60-60 60z" fill="#ffd396"/><circle cx="166" cy="181" fill="#704c55" r="30"/><path d="m346 241c-33.091 0-60-26.909-60-60s26.909-60 60-60 60 26.909 60 60-26.909 60-60 60z" fill="#ffb64c"/><circle cx="346" cy="181" fill="#5b362a" r="30"/></g></svg>