<svg id="Layer_1" height="512" viewBox="0 0 128 128" width="512" xmlns="http://www.w3.org/2000/svg" xmlns:xlink="http://www.w3.org/1999/xlink" data-name="Layer 1"><linearGradient id="linear-gradient" gradientUnits="userSpaceOnUse" x1="110.637" x2="17.363" y1="112.374" y2="19.101"><stop offset="0" stop-color="#6f79e0"/><stop offset="1" stop-color="#28ebcf"/></linearGradient><path d="m61.206 24.849c.926-.068 1.867-.1 2.794-.1a37.863 37.863 0 0 1 31.037 59.539 1.75 1.75 0 1 0 2.863 2.006 41.3 41.3 0 0 0 .8-46.147l1.683-1.683 4.12 4.12a1.75 1.75 0 1 0 2.475-2.475l-11.264-11.264-4.119-4.12 2.784-2.784a10 10 0 1 1 14.148 14.147 1.75 1.75 0 1 0 2.473 2.474 13.5 13.5 0 1 0 -19.1-19.1l-4.021 4.022a1.748 1.748 0 0 0 0 2.474l4.121 4.124-1.127 1.126a41.163 41.163 0 0 0 -26.873-9.961c-1.012 0-2.038.038-3.049.111a1.75 1.75 0 1 0 .255 3.491zm36.7 11.14-1.266 1.266a41.919 41.919 0 0 0 -3.2-3.662l1.037-1.037zm-46.096-11.121a1.751 1.751 0 0 1 1.225-2.151c.283-.078.569-.153.854-.225a1.75 1.75 0 1 1 .858 3.394c-.264.066-.525.135-.787.206a1.721 1.721 0 0 1 -.463.063 1.75 1.75 0 0 1 -1.687-1.287zm20.565 78.811a1.749 1.749 0 0 1 -1.75 1.75h-1a1.75 1.75 0 0 1 0-3.5h1a1.75 1.75 0 0 1 1.75 1.75zm36.436-1.5a16.308 16.308 0 0 0 -15.511-11.208h-14.809a32.029 32.029 0 0 0 7.89-5.709.979.979 0 0 0 .277-.277 31.8 31.8 0 0 0 0-44.759 1.661 1.661 0 0 0 -.126-.154 1.792 1.792 0 0 0 -.153-.126 31.8 31.8 0 0 0 -44.758 0 1.547 1.547 0 0 0 -.156.127 1.661 1.661 0 0 0 -.126.154 31.832 31.832 0 0 0 .123 44.907v.005c.017.016.036.027.053.043a1.688 1.688 0 0 0 .22.179 1.751 1.751 0 0 0 2.2-.222c.008-.008.013-.017.02-.024l2.245-2.237a1.75 1.75 0 1 0 -2.473-2.478l-.981.981a28.123 28.123 0 0 1 -7.054-17.029h1.387a1.75 1.75 0 0 0 0-3.5h-1.386a28.243 28.243 0 0 1 7.063-17.019l.971.971a1.75 1.75 0 0 0 2.473-2.473l-.971-.97a28.243 28.243 0 0 1 17.021-7.061v1.386a1.75 1.75 0 0 0 3.5 0v-1.386a28.243 28.243 0 0 1 17.019 7.063l-.97.971a1.749 1.749 0 1 0 2.474 2.474l.971-.97a28.243 28.243 0 0 1 7.063 17.019h-1.386a1.75 1.75 0 1 0 0 3.5h1.386a28.243 28.243 0 0 1 -7.063 17.018l-.971-.97a1.75 1.75 0 0 0 -2.473 2.473l.97.97a28.239 28.239 0 0 1 -17.02 7.064v-1.387a1.75 1.75 0 0 0 -3.5 0v1.446h-23.3a37.887 37.887 0 0 1 -6.134-49.862 1.735 1.735 0 0 0 .316-.472 37.514 37.514 0 0 1 4.97-5.66 1.872 1.872 0 0 0 .176-.144c.043-.044.076-.093.113-.139a38.288 38.288 0 0 1 8.809-6.026 1.75 1.75 0 0 0 -1.556-3.136 41.861 41.861 0 0 0 -8.544 5.655l-1.1-1.105 4.121-4.121a1.75 1.75 0 0 0 0-2.474l-4.021-4.022a13.5 13.5 0 0 0 -19.1 19.097l4.022 4.022a1.749 1.749 0 0 0 2.475 0l4.12-4.12 1.649 1.649a41.419 41.419 0 0 0 4.669 50.887 16.3 16.3 0 0 0 -14.746 11.179l-2.647 8.01a1.75 1.75 0 0 0 1.662 2.3h16.496a1.749 1.749 0 0 0 1.75-1.75 5.318 5.318 0 0 1 5.311-5.311h20.489a1.75 1.75 0 0 0 0-3.5h-20.489a8.825 8.825 0 0 0 -8.636 7.061h-12.5l1.888-5.711a12.814 12.814 0 0 1 12.187-8.807h58.6a12.813 12.813 0 0 1 12.187 8.808l1.887 5.711h-12.5a8.825 8.825 0 0 0 -8.636-7.061h-7.905a1.75 1.75 0 0 0 0 3.5h7.906a5.317 5.317 0 0 1 5.311 5.311 1.749 1.749 0 0 0 1.75 1.75h16.5a1.75 1.75 0 0 0 1.661-2.3zm-86.552-63.307-2.785-2.785a10 10 0 0 1 14.148-14.148l2.784 2.785zm7.832-2.883 3.433-3.433 1.008 1.009a41 41 0 0 0 -3.207 3.659zm35.659 9.442v16.409l7.794 7.217a1.75 1.75 0 0 1 -2.379 2.568l-8.354-7.736a1.749 1.749 0 0 1 -.561-1.284v-17.174a1.75 1.75 0 0 1 3.5 0z" fill="url(#linear-gradient)"/></svg>