<svg height="512pt" viewBox="0 0 512 512" width="512pt" xmlns="http://www.w3.org/2000/svg"><path d="m508.792969 210.976562h-207.769531v-207.769531l18.726562 4.800781c44.242188 11.339844 84.796875 34.5 117.269531 66.976563 32.472657 32.472656 55.632813 73.023437 66.972657 117.269531zm-177.769531-30h138.222656c-11.171875-31.738281-29.417969-60.757812-53.441406-84.78125-24.023438-24.019531-53.042969-42.269531-84.78125-53.441406zm0 0"/><path d="m256 512c-68.378906 0-132.667969-26.628906-181.019531-74.980469-48.351563-48.351562-74.980469-112.640625-74.980469-181.019531s26.628906-132.667969 74.980469-181.019531c48.351562-48.351563 112.640625-74.980469 181.019531-74.980469h15l.023438 15v225.976562h240.976562v15c0 68.402344-26.628906 132.691407-74.980469 181.042969-48.351562 48.351563-112.640625 74.980469-181.019531 74.980469zm-14.976562-481.515625c-54.742188 3.5625-105.699219 26.578125-144.828126 65.710937-42.6875 42.683594-66.195312 99.4375-66.195312 159.804688s23.507812 117.121094 66.195312 159.804688c42.683594 42.6875 99.4375 66.195312 159.804688 66.195312s117.121094-23.507812 159.804688-66.195312c39.140624-39.136719 62.15625-90.097657 65.710937-144.828126h-240.492187zm0 0"/></svg>