<svg id="Layer_1" height="512" viewBox="0 0 128 128" width="512" xmlns="http://www.w3.org/2000/svg" data-name="Layer 1"><path d="m33.334 14.146h59.583v11.52h-59.583z" fill="#4ed5d2"/><path d="m33.334 102.333h59.583v11.52h-59.583z" fill="#4ed5d2"/><path d="m69.7 62.988a21.86 21.86 0 0 1 -13.147 0 21.863 21.863 0 0 1 -15.108-18.025l-2.517-19.3h48.4l-2.517 19.3a21.863 21.863 0 0 1 -15.111 18.025z" fill="#e5ffff"/><path d="m87.326 102.33h-48.4l1.28-9.77v-.01l1.24-9.51a21.862 21.862 0 0 1 43.36 0z" fill="#e5ffff"/><path d="m27.374 14.146h71.5a0 0 0 0 1 0 0 5.76 5.76 0 0 1 -5.76 5.76h-59.98a5.76 5.76 0 0 1 -5.76-5.76 0 0 0 0 1 0 0z" fill="#1a91e9"/><path d="m27.374 108.093h71.5a0 0 0 0 1 0 0 5.76 5.76 0 0 1 -5.76 5.76h-59.98a5.76 5.76 0 0 1 -5.76-5.76 0 0 0 0 1 0 0z" fill="#1a91e9" transform="matrix(-1 0 0 -1 126.251 221.947)"/><path d="m80.124 89.079a14.192 14.192 0 0 0 -3.857-7.707c-.073-.076-.146-.151-.221-.226a76.775 76.775 0 0 1 -12.909-16.946l-.011-.019a69.274 69.274 0 0 1 -12.626 16.677 14.28 14.28 0 0 0 -4.377 8.221l-.972 6.533v.007l-1 6.711h37.949z" fill="#fb8b5c"/><path d="m67.627 63.307a14.967 14.967 0 0 1 -9 0 14.97 14.97 0 0 1 -10.348-12.343l-1.724-13.214h33.145l-1.727 13.214a14.973 14.973 0 0 1 -10.346 12.343z" fill="#ffb59e"/><g fill="#04303e"><path d="m47.5 18.157a1.75 1.75 0 0 0 0 3.5h1.125a1.75 1.75 0 0 0 0-3.5z"/><path d="m94.667 106.506v-4.173a1.75 1.75 0 0 0 -1.75-1.75h-4.055l-2.322-17.769a23.565 23.565 0 0 0 -14.513-18.814 23.7 23.7 0 0 0 14.514-18.81l2.319-17.773h4.057a1.75 1.75 0 0 0 0-3.5h-57.834v-2.26h5.042a1.75 1.75 0 0 0 0-3.5h-6.991a4.016 4.016 0 0 1 -3.608-2.257h67.2a4.019 4.019 0 0 1 -3.609 2.261h-36.367a1.75 1.75 0 0 0 0 3.5h36.366a7.519 7.519 0 0 0 7.511-7.511 1.75 1.75 0 0 0 -1.75-1.75h-71.5a1.75 1.75 0 0 0 -1.75 1.75 7.522 7.522 0 0 0 5.959 7.348v4.173a1.751 1.751 0 0 0 1.75 1.75h4.054l2.318 17.769a23.7 23.7 0 0 0 14.515 18.81 23.7 23.7 0 0 0 -14.514 18.814l-1.239 9.51c0 .02 0 .041-.007.062l-1.074 8.2h-4.056a1.75 1.75 0 0 0 0 3.5h57.834v2.26h-58.033a7.519 7.519 0 0 0 -7.51 7.511 1.75 1.75 0 0 0 1.75 1.75h38.084a1.75 1.75 0 0 0 0-3.5h-35.932a4.016 4.016 0 0 1 3.608-2.261h59.982a4.019 4.019 0 0 1 3.609 2.261h-14.625a1.75 1.75 0 0 0 0 3.5h16.777a1.75 1.75 0 0 0 1.75-1.75 7.522 7.522 0 0 0 -5.96-7.351zm-16.124-33.563a20.1 20.1 0 0 1 4.526 10.324l2.263 17.316h-39.151l.7-4.706.008-.057.964-6.484a12.485 12.485 0 0 1 3.854-7.211 69.269 69.269 0 0 0 11.42-14.46 80.024 80.024 0 0 0 11.682 14.719l.191.2a12.445 12.445 0 0 1 3.394 6.756l.926 6.216a1.75 1.75 0 1 0 3.461-.516l-.927-6.216a15.906 15.906 0 0 0 -4.323-8.658l-.247-.253a76.576 76.576 0 0 1 -11.061-13.913 20.025 20.025 0 0 1 12.32 6.948zm-2.307-22.2a13.222 13.222 0 0 1 -26.222 0l-1.466-11.243h29.152zm-33.057-6-2.259-17.326h44.41l-2.26 17.32a20.086 20.086 0 0 1 -4.181 9.853 16.62 16.62 0 0 0 .818-3.4l1.724-13.213a1.749 1.749 0 0 0 -1.736-1.977h-33.14a1.751 1.751 0 0 0 -1.736 1.977l1.724 13.213a16.581 16.581 0 0 0 .819 3.4 20.083 20.083 0 0 1 -4.183-9.853zm-1.239 48.045c0-.021.005-.043.007-.065l1.233-9.457a20.063 20.063 0 0 1 16.866-17.274 65.71 65.71 0 0 1 -10.75 13.6 15.946 15.946 0 0 0 -4.9 9.23l-.973 6.533-.007.055-.774 5.174h-1.723z"/><path d="m73.958 112.1h-.916a1.75 1.75 0 0 0 0 3.5h.916a1.75 1.75 0 0 0 0-3.5z"/></g></svg>