<svg height="512" viewBox="0 0 64 64" width="512" xmlns="http://www.w3.org/2000/svg" xmlns:xlink="http://www.w3.org/1999/xlink"><linearGradient id="New_Gradient_Swatch_3" gradientUnits="userSpaceOnUse" x1="32" x2="32" y1="68.07" y2="-.631"><stop offset="0" stop-color="#006df0"/><stop offset="1" stop-color="#00e7f0"/></linearGradient><g id="Money_bag" fill="url(#New_Gradient_Swatch_3)" data-name="Money bag"><path d="m51.56 54.315a1.037 1.037 0 0 1 -.56-.975v-22.34a13.018 13.018 0 0 0 -11.661-12.931l4.616-14.769a1 1 0 0 0 -.955-1.3 5.114 5.114 0 0 0 -3.339 1.191 3.3 3.3 0 0 1 -4.328 0 5.275 5.275 0 0 0 -6.677 0 3.289 3.289 0 0 1 -4.321 0 5.1 5.1 0 0 0 -3.335-1.191 1 1 0 0 0 -.955 1.3l4.616 14.771a13.018 13.018 0 0 0 -11.661 12.929v22.34a1.039 1.039 0 0 1 -.561.977 4.009 4.009 0 0 0 -2.429 3.975 4.107 4.107 0 0 0 4.159 3.708h35.831a4 4 0 0 0 1.56-7.685zm-28.401-49.506a5.27 5.27 0 0 0 6.674 0 3.295 3.295 0 0 1 4.325 0 5.276 5.276 0 0 0 6.678 0 6.8 6.8 0 0 1 .7-.465l-4.271 13.656h-10.53l-4.267-13.654a6.721 6.721 0 0 1 .691.463zm28.254 54.6a1.983 1.983 0 0 1 -1.413.591h-35.831a2.129 2.129 0 0 1 -2.164-1.852 2.008 2.008 0 0 1 1.217-1.99 3.017 3.017 0 0 0 1.778-2.818v-22.34a11.013 11.013 0 0 1 11-11h12a11.013 11.013 0 0 1 11 11v22.34a3.013 3.013 0 0 0 1.781 2.817 2 2 0 0 1 .632 3.256z"/><path d="m32 26a13 13 0 1 0 13 13 13.015 13.015 0 0 0 -13-13zm0 24a11 11 0 1 1 11-11 11.013 11.013 0 0 1 -11 11z"/><path d="m32 34c1.626 0 3 .916 3 2a1 1 0 0 0 2 0c0-1.932-1.721-3.547-4-3.919v-1.081a1 1 0 0 0 -2 0v1.081c-2.279.372-4 1.987-4 3.919 0 2.206 2.243 4 5 4 1.626 0 3 .916 3 2s-1.374 2-3 2-3-.916-3-2a1 1 0 0 0 -2 0c0 1.932 1.721 3.547 4 3.919v1.081a1 1 0 0 0 2 0v-1.081c2.279-.372 4-1.987 4-3.919 0-2.206-2.243-4-5-4-1.626 0-3-.916-3-2s1.374-2 3-2z"/></g></svg>