<?xml version="1.0" encoding="iso-8859-1"?>
<!-- Generator: Adobe Illustrator 18.0.0, SVG Export Plug-In . SVG Version: 6.00 Build 0)  -->
<!DOCTYPE svg PUBLIC "-//W3C//DTD SVG 1.1//EN" "http://www.w3.org/Graphics/SVG/1.1/DTD/svg11.dtd">
<svg version="1.1" id="Capa_1" xmlns="http://www.w3.org/2000/svg" xmlns:xlink="http://www.w3.org/1999/xlink" x="0px" y="0px"
	 viewBox="0 0 285.92 285.92" style="enable-background:new 0 0 285.92 285.92;" xml:space="preserve">
<g>
	<path d="M142.96,0C64.132,0,0,64.132,0,142.96s64.132,142.96,142.96,142.96s142.96-64.132,142.96-142.96S221.788,0,142.96,0z
		 M155.294,142.96c-7.64,0-13.833-6.193-13.833-13.833V39.565c0-3.955,1.693-7.72,4.65-10.346s6.897-3.856,10.825-3.391
		c53.453,6.32,95.883,48.497,102.947,101.452c0.527,3.953-0.678,7.939-3.303,10.941c-2.625,3.002-6.42,4.739-10.408,4.739H155.294z"
		/>
</g>
<g>
</g>
<g>
</g>
<g>
</g>
<g>
</g>
<g>
</g>
<g>
</g>
<g>
</g>
<g>
</g>
<g>
</g>
<g>
</g>
<g>
</g>
<g>
</g>
<g>
</g>
<g>
</g>
<g>
</g>
</svg>
