<svg id="Layer_2" height="512" viewBox="0 0 128 128" width="512" xmlns="http://www.w3.org/2000/svg" xmlns:xlink="http://www.w3.org/1999/xlink" data-name="Layer 2"><linearGradient id="linear-gradient" gradientUnits="userSpaceOnUse" x1="86.522" x2="35.022" y1="88.277" y2="36.776"><stop offset="0" stop-color="#fa7300"/><stop offset="1" stop-color="#fcd248"/></linearGradient><path d="m18.752 58.96a1.75 1.75 0 0 1 1.06-2.236l4.3-1.535a1.75 1.75 0 1 1 1.178 3.3l-4.3 1.535a1.746 1.746 0 0 1 -2.237-1.06zm54.348 35.077a1.789 1.789 0 0 0 -.039-.389l-10.81-49.979a1.75 1.75 0 0 0 -2.3-1.278l-30.009 10.716a1.75 1.75 0 0 0 1.178 3.3l28.131-10.049 10.324 47.742a1.878 1.878 0 0 0 .025.223 9.849 9.849 0 1 1 -6.7-7.7 1.751 1.751 0 0 0 2.243-2.037l-2.9-13.417a1.751 1.751 0 0 0 -3.422.741l2.337 10.8a13.346 13.346 0 1 0 11.942 11.327zm-50.284-25.468 32.748-11.693 1.53 7.066a1.75 1.75 0 1 0 3.42-.74l-1.951-9.014a1.748 1.748 0 0 0 -2.3-1.278l-36.071 12.88a1.75 1.75 0 0 0 -1.122 2.017l8.653 40.015a9.869 9.869 0 1 1 -6.641-7.3 1.75 1.75 0 0 0 2.244-2.036l-8.216-37.986a1.75 1.75 0 1 0 -3.42.74l7.65 35.375a13.346 13.346 0 1 0 -1.269 26.634 13.367 13.367 0 0 0 13.075-16.17zm77.984-20.475a1.751 1.751 0 0 0 -3.311-1.138c-1.231 3.583-6.469 5.376-11.926 4.086-5.645-1.337-9.655-5.673-8.756-9.467s6.427-5.871 12.071-4.533a14.267 14.267 0 0 1 5.731 2.758 1.75 1.75 0 0 0 2.812-.951l7.163-30.241 3.448.817c.057.02.115.037.176.052 5.228 1.237 9.8 5.189 11.128 9.608a9.512 9.512 0 0 1 .121 5.105 15.118 15.118 0 0 0 -1.768-5.075 15.193 15.193 0 0 0 -10.09-7.067 1.751 1.751 0 0 0 -2.107 1.3l-6.15 25.962a1.75 1.75 0 1 0 3.406.807l5.727-24.175a11.021 11.021 0 0 1 6.176 4.91 13.062 13.062 0 0 1 .934 9.969 1.75 1.75 0 0 0 2.946 1.715c4.155-4.407 5.631-9.542 4.157-14.458-1.675-5.593-7.082-10.378-13.488-11.964a1.567 1.567 0 0 0 -.184-.055l-5.329-1.259a1.755 1.755 0 0 0 -2.106 1.3l-6.981 29.463a18.532 18.532 0 0 0 -4.918-1.927c-7.618-1.8-14.924 1.395-16.285 7.133s3.737 11.874 11.356 13.679a18.883 18.883 0 0 0 4.346.517c5.546-.001 10.232-2.602 11.701-6.871z" fill="url(#linear-gradient)"/></svg>