<svg height="512" viewBox="0 0 128 128" width="512" xmlns="http://www.w3.org/2000/svg" xmlns:xlink="http://www.w3.org/1999/xlink"><linearGradient id="linear-gradient" gradientUnits="userSpaceOnUse" x1="111.737" x2="15.436" y1="111.737" y2="15.436"><stop offset="0" stop-color="#06daf7"/><stop offset="1" stop-color="#f9ce00"/></linearGradient><g id="Layer_2" data-name="Layer 2"><path d="m94.75 0h-61.5a5.757 5.757 0 0 0 -5.75 5.75v62.85a1.75 1.75 0 0 0 3.5 0v-53.29h66v88.44h-66v-13.875a1.75 1.75 0 0 0 -3.5 0v32.375a5.757 5.757 0 0 0 5.75 5.75h61.5a1.75 1.75 0 0 0 0-3.5h-61.5a2.253 2.253 0 0 1 -2.25-2.25v-15h66v11.625a1.75 1.75 0 0 0 3.5 0v-113.125a5.757 5.757 0 0 0 -5.75-5.75zm-63.75 11.81v-6.06a2.253 2.253 0 0 1 2.25-2.25h61.5a2.253 2.253 0 0 1 2.25 2.25v6.06zm-3.5 69.111v-3.363a1.75 1.75 0 0 1 3.5 0v3.363a1.75 1.75 0 0 1 -3.5 0zm28.625 30.2a4.75 4.75 0 0 0 0 9.5h15.75a4.75 4.75 0 0 0 0-9.5zm17 4.75a1.252 1.252 0 0 1 -1.25 1.25h-15.75a1.25 1.25 0 0 1 0-2.5h15.75a1.252 1.252 0 0 1 1.25 1.254zm-12.708-45.517a1.749 1.749 0 0 1 -1.247-2.978c9.574-9.73 9.574-9.73 10.455-9.73a1.75 1.75 0 0 1 1.032 3.163c-.741.669-5.864 5.843-8.993 9.023a1.744 1.744 0 0 1 -1.247.522zm-9.9-1.891a1.749 1.749 0 0 1 -1.247-2.977c5.853-5.949 5.853-5.949 6.673-5.949a1.75 1.75 0 0 1 1.07 3.135c-.456.421-3.006 2.99-5.249 5.269a1.744 1.744 0 0 1 -1.25.522zm23.588 0a1.749 1.749 0 0 1 -1.248-2.977c5.854-5.949 5.854-5.949 6.674-5.949a1.75 1.75 0 0 1 1.07 3.135c-.456.421-3.006 2.99-5.249 5.269a1.744 1.744 0 0 1 -1.252.522z" fill="url(#linear-gradient)"/></g></svg>